<svg width="70" height="70" viewBox="0 0 70 70" fill="none" xmlns="http://www.w3.org/2000/svg">
<path d="M27.5961 57.2799C27.2666 58.5245 26.6621 59.6792 25.8272 60.6592C24.9922 61.6391 23.9481 62.4194 22.7718 62.9424L22.575 63.0322C21.5239 63.5077 20.6276 64.2689 19.9882 65.2291C19.3488 66.1893 18.9921 67.3098 18.9586 68.4629C18.8641 68.2737 16.8246 63.3548 18.1205 61.4629C17.0846 62.1315 15.8817 62.4956 14.6489 62.5139C11.4526 62.6141 9.56446 67.9143 9.49257 68.0789C9.42257 67.8745 7.50608 60.9218 12.2358 58.6194C12.2358 58.6194 14.2138 57.5666 13.6386 55.9064C12.6255 54.0533 8.57216 56.3794 8.44824 56.457C9.28173 53.4208 10.9152 50.6642 13.178 48.4751C13.9925 47.7157 14.9497 47.1257 15.9941 46.7393" fill="#FCD462"/>
<path d="M18.0221 61.5679C16.9762 62.1122 15.829 62.4343 14.6526 62.5139C11.4629 62.7608 9.56344 67.9152 9.48777 68.076C9.18533 66.9279 9.03897 65.7443 9.05263 64.5571V64.5477C9.88507 62.9206 11.4175 60.6314 13.508 60.5652C15.231 60.3432 16.8916 59.7767 18.391 58.8994L18.0221 61.5679Z" fill="#F7BE56"/>
<path d="M27.5931 57.2836C27.2652 58.5282 26.6613 59.683 25.8261 60.6622C24.9909 61.6415 23.946 62.4201 22.7688 62.9404C22.7026 62.9688 22.6458 63.0066 22.5796 63.035C21.529 63.5116 20.6329 64.2728 19.9926 65.2324C19.3523 66.192 18.9934 67.3117 18.9566 68.4647C18.5341 67.475 18.2017 66.4492 17.9634 65.3998V65.3715C18.1509 64.4291 18.565 63.5466 19.1698 62.8C19.7746 62.0534 20.5521 61.4653 21.435 61.0863C21.4993 61.051 21.5657 61.0194 21.6336 60.9917C22.6947 60.5209 23.6492 59.8396 24.4394 58.9893C25.2296 58.1389 25.839 57.1371 26.2309 56.0444L27.5931 57.2836Z" fill="#F7BE56"/>
<path d="M24.5352 54.4986C24.3821 55.0806 24.1002 55.6207 23.7104 56.0792C23.3205 56.5376 22.8327 56.9026 22.2829 57.1472L22.1883 57.1889C21.6975 57.4109 21.279 57.7664 20.9804 58.2148C20.6819 58.6632 20.5153 59.1865 20.4998 59.7249C20.4553 59.636 19.5037 57.3402 20.1081 56.4576C19.6244 56.77 19.0626 56.9401 18.4868 56.9486C16.9941 56.9949 16.1125 59.4705 16.0784 59.5471C16.0453 59.4525 15.1514 56.2051 17.3573 55.1295C17.3573 55.1295 18.2815 54.6377 18.0129 53.8629C17.5399 52.9974 15.648 54.0833 15.5894 54.1202C15.9789 52.7024 16.7421 51.4153 17.7991 50.3932C18.1794 50.0386 18.6263 49.763 19.1139 49.5825L24.5352 54.4986Z" fill="#FE7058"/>
<path d="M26.4571 24.5151C20.0909 22.7452 12.4249 25.9926 8.88804 31.393C7.90406 32.8924 7.23529 34.5763 6.92236 36.3422C8.72688 35.1618 10.7735 34.4017 12.9111 34.1181C15.0487 33.8345 17.2227 34.0347 19.2726 34.7038" fill="#FE7058"/>
<path d="M6.9225 36.8152C6.85335 36.8152 6.78505 36.8 6.72241 36.7708C6.65977 36.7415 6.60431 36.6988 6.55994 36.6458C6.51557 36.5928 6.48336 36.5306 6.46559 36.4638C6.44782 36.397 6.44492 36.3271 6.45709 36.259C6.7783 34.4294 7.47076 32.6848 8.49182 31.133C12.2538 25.393 20.2007 22.2846 26.583 24.0592C26.6429 24.0758 26.6989 24.1041 26.7479 24.1424C26.7968 24.1807 26.8377 24.2282 26.8683 24.2823C26.8989 24.3365 26.9185 24.3961 26.926 24.4577C26.9336 24.5194 26.9289 24.582 26.9122 24.6419C26.8956 24.7017 26.8673 24.7578 26.829 24.8067C26.7907 24.8557 26.7432 24.8966 26.6891 24.9271C26.6349 24.9577 26.5753 24.9773 26.5137 24.9849C26.452 24.9924 26.3894 24.9877 26.3295 24.9711C20.3237 23.2996 12.8318 26.2339 9.28263 31.6523C8.53325 32.79 7.97324 34.0416 7.62439 35.3585C9.41307 34.3869 11.3802 33.7881 13.4068 33.5982C15.4335 33.4083 17.4776 33.6312 19.4156 34.2536C19.5303 34.2951 19.6245 34.3794 19.6786 34.4887C19.7327 34.598 19.7424 34.724 19.7058 34.8404C19.6691 34.9567 19.589 35.0544 19.482 35.1131C19.3751 35.1717 19.2496 35.1868 19.1318 35.1551C17.1491 34.5133 15.0481 34.3221 12.982 34.5954C10.916 34.8687 8.93695 35.5996 7.18925 36.7348C7.11042 36.7878 7.01747 36.8158 6.9225 36.8152Z" fill="#323C6B"/>
<path d="M48.3041 44.3579C50.6765 50.5255 48.1783 58.4667 43.143 62.5059C41.7448 63.6291 40.1327 64.4562 38.4048 64.937C39.4066 63.0277 39.9669 60.9177 40.0442 58.7629C40.1214 56.6082 39.7138 54.4635 38.8513 52.4874" fill="#FE7058"/>
<path d="M43.1445 62.5051C41.746 63.6285 40.1336 64.4556 38.4053 64.9361C39.1252 63.5993 39.6145 62.1506 39.8526 60.651C40.2707 60.3931 40.672 60.1087 41.0539 59.7997C43.1132 58.0446 44.7301 55.8291 45.7737 53.3327C46.8173 50.8363 47.2582 48.1292 47.0607 45.4307V45.4213L48.2999 44.3618C50.6742 50.5294 48.1769 58.4659 43.1445 62.5051Z" fill="#EA6453"/>
<path d="M64.9051 4.13818C64.75 8.64056 64.1061 13.1128 62.9848 17.476C60.3024 17.1403 57.7904 15.9802 55.7956 14.1558C53.7951 12.3432 52.4013 9.95855 51.8037 7.32602C56.0437 5.79598 60.4361 4.7272 64.9051 4.13818Z" fill="#FE7058"/>
<path d="M62.9851 17.476C61.15 24.949 57.527 34.3044 50.423 42.1179C45.3703 47.8485 39.3511 52.6479 32.6392 56.2976L16.0757 41.2429C19.068 34.2134 23.2684 27.7624 28.4865 22.1821C35.5905 14.3591 44.5487 9.86588 51.8041 7.32129C52.4017 9.95382 53.7955 12.3385 55.796 14.151C57.7901 15.9772 60.3022 17.139 62.9851 17.476Z" fill="#EEEFEE"/>
<path d="M64.9014 4.14062C64.7464 8.64301 64.1025 13.1152 62.9811 17.4785C61.9998 17.3562 61.0353 17.1246 60.1055 16.7879C60.1338 16.6933 60.1622 16.5987 60.1811 16.5041C61.1616 12.5957 61.7854 8.60639 62.0447 4.58522C63.8514 4.24468 64.9014 4.14062 64.9014 4.14062Z" fill="#EA6453"/>
<path d="M62.981 17.4782C61.1458 24.9512 57.5229 34.3066 50.4188 42.1201C45.3661 47.8508 39.3469 52.6501 32.635 56.2999L30.9229 54.739C37.1896 51.1462 42.8289 46.5559 47.6188 41.1486C54.6377 33.4297 58.2512 24.2162 60.1053 16.7905C61.0352 17.1262 61.9998 17.3569 62.981 17.4782Z" fill="#E1E6E9"/>
<path d="M29.3776 58.899L13.7979 44.7486L17.7065 42.73L31.0112 54.8154L29.3776 58.899Z" fill="#84879C"/>
<path d="M29.3773 59.3734C29.2597 59.3733 29.1464 59.3295 29.0594 59.2504L13.4797 45.0991C13.4232 45.0478 13.38 44.9836 13.3537 44.912C13.3274 44.8404 13.3188 44.7635 13.3287 44.6879C13.3385 44.6123 13.3665 44.5401 13.4103 44.4776C13.454 44.4152 13.5122 44.3642 13.58 44.3291L17.4886 42.3114C17.5742 42.2672 17.6713 42.2503 17.7668 42.2628C17.8623 42.2753 17.9517 42.3167 18.0231 42.3814L31.3287 54.4658C31.4002 54.5307 31.45 54.6158 31.4717 54.7098C31.4933 54.8039 31.4857 54.9022 31.4498 54.9918L29.8162 59.0754C29.7876 59.146 29.7424 59.2087 29.6845 59.2581C29.6265 59.3075 29.5575 59.3422 29.4832 59.3592C29.4485 59.3678 29.413 59.3725 29.3773 59.3734ZM14.6205 44.8569L29.1881 58.0926L30.4471 54.9454L17.6314 43.3018L14.6205 44.8569Z" fill="#323C6B"/>
<path d="M53.2294 25.5842C55.3805 23.2155 55.204 19.5515 52.8353 17.4005C50.4666 15.2495 46.8027 15.4259 44.6516 17.7946C42.5006 20.1633 42.677 23.8273 45.0457 25.9783C47.4144 28.1293 51.0784 27.9529 53.2294 25.5842Z" fill="#05AFD6"/>
<path d="M48.9592 27.9528C47.5227 27.9511 46.1303 27.4558 45.0154 26.5499C43.9005 25.6441 43.1306 24.3826 42.8349 22.9768C42.5392 21.571 42.7355 20.1063 43.3909 18.828C44.0463 17.5496 45.1211 16.5354 46.4352 15.955C47.7494 15.3746 49.223 15.2634 50.6093 15.64C51.9956 16.0167 53.2104 16.8582 54.0503 18.0237C54.8901 19.1892 55.304 20.6078 55.2225 22.0421C55.1411 23.4763 54.5693 24.8391 53.6029 25.902C53.0157 26.55 52.2989 27.0674 51.4989 27.4207C50.699 27.7739 49.8337 27.9552 48.9592 27.9528ZM48.9678 16.365C48.8807 16.365 48.7937 16.365 48.7076 16.3716C48.0083 16.4026 47.322 16.5721 46.6887 16.8704C46.0554 17.1687 45.4877 17.5898 45.0184 18.1093C44.1984 19.0124 43.7135 20.1698 43.6449 21.3877C43.5764 22.6056 43.9283 23.8101 44.6418 24.7995C45.3552 25.789 46.387 26.5033 47.5642 26.8229C48.7415 27.1424 49.9927 27.0479 51.1086 26.555C52.2245 26.0622 53.1371 25.201 53.6938 24.1155C54.2505 23.0301 54.4174 21.7864 54.1666 20.5926C53.9158 19.3989 53.2625 18.3275 52.3161 17.5578C51.3697 16.7882 50.1876 16.3671 48.9678 16.365Z" fill="#323C6B"/>
<path d="M25.2671 39.4532C25.1756 39.4532 25.086 39.4265 25.0093 39.3765C24.9325 39.3266 24.872 39.2554 24.8349 39.1717C24.7978 39.0879 24.7859 38.9952 24.8005 38.9048C24.8151 38.8144 24.8556 38.7302 24.9171 38.6624L32.2426 30.5973C32.2837 30.5492 32.3341 30.51 32.3907 30.4818C32.4473 30.4536 32.509 30.437 32.5721 30.433C32.6353 30.4291 32.6985 30.4379 32.7582 30.4588C32.8179 30.4797 32.8728 30.5124 32.9196 30.555C32.9664 30.5975 33.0042 30.649 33.0308 30.7063C33.0574 30.7637 33.0722 30.8259 33.0743 30.8891C33.0765 30.9523 33.0659 31.0153 33.0433 31.0744C33.0206 31.1334 32.9864 31.1874 32.9426 31.2329L25.6171 39.2981C25.5728 39.3469 25.5188 39.3859 25.4585 39.4126C25.3983 39.4393 25.3331 39.4532 25.2671 39.4532Z" fill="#323C6B"/>
<path d="M34.0201 47.4029C33.9285 47.4029 33.8389 47.3762 33.7622 47.3263C33.6855 47.2763 33.6249 47.2051 33.5878 47.1214C33.5508 47.0376 33.5388 46.9449 33.5534 46.8545C33.568 46.7641 33.6085 46.6799 33.6701 46.6121L40.9955 38.547C41.0366 38.499 41.087 38.4597 41.1436 38.4315C41.2002 38.4033 41.2619 38.3867 41.3251 38.3828C41.3882 38.3788 41.4515 38.3876 41.5112 38.4085C41.5708 38.4294 41.6257 38.4621 41.6725 38.5047C41.7194 38.5472 41.7572 38.5987 41.7838 38.6561C41.8103 38.7135 41.8251 38.7756 41.8273 38.8388C41.8294 38.902 41.8188 38.965 41.7962 39.0241C41.7736 39.0831 41.7393 39.1371 41.6955 39.1826L34.3701 47.2478C34.3258 47.2966 34.2717 47.3356 34.2115 47.3623C34.1512 47.3891 34.086 47.4029 34.0201 47.4029Z" fill="#323C6B"/>
<path d="M31.4688 41.419C31.3772 41.419 31.2876 41.3923 31.2109 41.3424C31.1342 41.2924 31.0736 41.2212 31.0366 41.1375C30.9995 41.0537 30.9875 40.961 31.0021 40.8706C31.0167 40.7802 31.0573 40.696 31.1188 40.6282L38.4442 32.5631C38.4854 32.5151 38.5358 32.4758 38.5924 32.4476C38.649 32.4194 38.7107 32.4028 38.7738 32.3989C38.8369 32.3949 38.9002 32.4037 38.9599 32.4246C39.0196 32.4456 39.0744 32.4783 39.1213 32.5208C39.1681 32.5633 39.2059 32.6148 39.2325 32.6722C39.2591 32.7296 39.2739 32.7917 39.276 32.8549C39.2781 32.9181 39.2676 32.9811 39.2449 33.0402C39.2223 33.0993 39.1881 33.1532 39.1442 33.1988L31.8188 41.2639C31.7745 41.3127 31.7205 41.3517 31.6602 41.3785C31.5999 41.4052 31.5347 41.419 31.4688 41.419Z" fill="#323C6B"/>
<path d="M62.5803 28.3782C62.5026 28.3782 62.426 28.359 62.3575 28.3224C62.2889 28.2857 62.2304 28.2328 62.1872 28.1681C62.144 28.1035 62.1174 28.0292 62.1097 27.9518C62.1021 27.8745 62.1136 27.7964 62.1433 27.7246C62.2568 27.4502 62.3656 27.1769 62.4744 26.9035C62.4972 26.8457 62.5312 26.793 62.5745 26.7484C62.6177 26.7038 62.6693 26.6681 62.7263 26.6434C62.7833 26.6188 62.8446 26.6055 62.9067 26.6046C62.9688 26.6036 63.0305 26.6148 63.0883 26.6377C63.1461 26.6605 63.1988 26.6945 63.2434 26.7378C63.288 26.781 63.3237 26.8326 63.3483 26.8896C63.373 26.9466 63.3862 27.0079 63.3872 27.07C63.3882 27.1321 63.377 27.1938 63.3541 27.2516C63.2444 27.5288 63.1337 27.8069 63.0183 28.0859C62.9825 28.1726 62.9217 28.2466 62.8437 28.2986C62.7658 28.3507 62.6741 28.3784 62.5803 28.3782Z" fill="#323C6B"/>
<path d="M56.8195 39.0201C56.7333 39.02 56.6488 38.9965 56.5751 38.9519C56.5014 38.9074 56.4412 38.8436 56.4011 38.7673C56.361 38.6911 56.3424 38.6054 56.3475 38.5194C56.3525 38.4334 56.381 38.3504 56.4297 38.2794C58.1678 35.7503 59.6968 33.0836 61.0015 30.306C61.0548 30.1923 61.1511 30.1045 61.2691 30.0619C61.3872 30.0192 61.5174 30.0252 61.631 30.0785C61.7447 30.1318 61.8325 30.2281 61.8752 30.3461C61.9178 30.4642 61.9118 30.5944 61.8585 30.708C60.5313 33.5323 58.9764 36.2438 57.2092 38.8157C57.1657 38.8788 57.1074 38.9304 57.0395 38.966C56.9716 39.0016 56.8961 39.0201 56.8195 39.0201Z" fill="#323C6B"/>
<path d="M4.4735 34.8228C4.40074 34.8226 4.32899 34.8057 4.26383 34.7733C4.19868 34.7409 4.14188 34.6939 4.09785 34.636C4.05383 34.578 4.02376 34.5107 4.01 34.4393C3.99624 34.3678 3.99915 34.2941 4.01851 34.224C4.47291 32.573 5.18343 31.0036 6.12418 29.5728C6.83549 28.5034 7.66008 27.5139 8.58364 26.6214C8.62805 26.5779 8.68059 26.5436 8.73826 26.5205C8.79592 26.4973 8.85759 26.4857 8.91974 26.4864C8.98188 26.487 9.04329 26.4999 9.10045 26.5243C9.15762 26.5487 9.20942 26.5841 9.2529 26.6285C9.29637 26.6729 9.33068 26.7255 9.35385 26.7831C9.37703 26.8408 9.38861 26.9025 9.38796 26.9646C9.3873 27.0268 9.3744 27.0882 9.35001 27.1453C9.32562 27.2025 9.29021 27.2543 9.2458 27.2978C8.37141 28.1429 7.5906 29.0797 6.91688 30.0921C6.02969 31.4408 5.35939 32.9202 4.9304 34.4766C4.90264 34.5763 4.84291 34.6642 4.76038 34.7268C4.67784 34.7893 4.57706 34.823 4.4735 34.8228Z" fill="#323C6B"/>
<path d="M10.6081 25.9452C10.5083 25.9464 10.4108 25.916 10.3293 25.8584C10.2478 25.8008 10.1867 25.7189 10.1546 25.6245C10.1225 25.53 10.121 25.4278 10.1505 25.3325C10.18 25.2372 10.2388 25.1537 10.3186 25.0938C10.5551 24.9112 10.8001 24.7381 11.0461 24.566C11.0967 24.5275 11.1546 24.4997 11.2163 24.4841C11.278 24.4685 11.3421 24.4656 11.405 24.4754C11.4678 24.4852 11.528 24.5076 11.582 24.5412C11.636 24.5748 11.6827 24.619 11.7192 24.671C11.7557 24.7231 11.7814 24.782 11.7946 24.8442C11.8079 24.9064 11.8084 24.9706 11.7963 25.0331C11.7841 25.0955 11.7595 25.1548 11.7239 25.2075C11.6883 25.2602 11.6424 25.3052 11.589 25.3398C11.3563 25.5034 11.1227 25.6689 10.8976 25.843C10.8151 25.9083 10.7133 25.9442 10.6081 25.9452Z" fill="#323C6B"/>
<path d="M62.9852 17.9492C62.9656 17.9503 62.9461 17.9503 62.9265 17.9492C60.147 17.6034 57.5439 16.4013 55.4781 14.5097C53.4033 12.6341 51.9588 10.1631 51.3425 7.43497C51.3166 7.32181 51.3332 7.20307 51.3892 7.10137C51.4452 6.99968 51.5367 6.92213 51.6461 6.88349C55.9233 5.34497 60.3524 4.26681 64.8581 3.66727C64.9237 3.66097 64.9899 3.66804 65.0526 3.68803C65.1154 3.70803 65.1734 3.74055 65.2233 3.78362C65.2723 3.82814 65.3115 3.88247 65.3382 3.94309C65.365 4.00371 65.3786 4.06927 65.3784 4.13551C65.2182 8.67822 64.5696 13.1905 63.444 17.5944C63.4177 17.6961 63.3584 17.7861 63.2753 17.8504C63.1922 17.9146 63.0902 17.9494 62.9852 17.9492ZM52.365 7.63173C52.9872 10.0107 54.29 12.1565 56.1138 13.8059C57.9302 15.4691 60.1953 16.5618 62.6276 16.9484C63.616 12.9239 64.216 8.81381 64.4192 4.6747C60.3164 5.27562 56.2802 6.26576 52.365 7.63173Z" fill="#323C6B"/>
<path d="M32.6349 56.7709C32.5173 56.7709 32.404 56.727 32.3171 56.648L15.7535 41.598C15.6822 41.5333 15.6322 41.4484 15.6104 41.3545C15.5886 41.2607 15.596 41.1625 15.6315 41.073C18.6516 33.9946 22.8817 27.4966 28.1322 21.8703C35.5626 13.6916 45.0202 9.20404 51.6484 6.87985C51.7112 6.85796 51.778 6.84957 51.8443 6.85523C51.9106 6.86089 51.9749 6.88048 52.0331 6.91271C52.0913 6.94494 52.1421 6.98908 52.1821 7.04227C52.2221 7.09545 52.2504 7.15647 52.2652 7.22134C52.8393 9.76004 54.1836 12.0594 56.1142 13.8051C58.0358 15.5653 60.4574 16.684 63.0433 17.0062C63.1095 17.0144 63.1732 17.0366 63.2303 17.0712C63.2874 17.1058 63.3364 17.1522 63.3743 17.2071C63.4122 17.262 63.438 17.3244 63.4501 17.39C63.4622 17.4557 63.4602 17.5231 63.4444 17.588C61.77 24.4054 58.2104 34.2546 50.7725 42.4361C45.6766 48.2039 39.6128 53.0377 32.8544 56.7198C32.7865 56.7546 32.7111 56.7721 32.6349 56.7709ZM16.6371 41.1193L32.7181 55.7266C39.2539 52.1069 45.1231 47.397 50.0725 41.8004C57.1964 33.9651 60.7002 24.5567 62.3991 17.868C59.8148 17.4417 57.4103 16.2729 55.4785 14.5042C53.5379 12.7503 52.1458 10.4728 51.4696 7.94593C44.9766 10.2815 35.9457 14.6726 28.836 22.505C23.7405 27.9707 19.6149 34.2658 16.6371 41.1193Z" fill="#323C6B"/>
<path d="M38.4058 65.4105C38.324 65.4105 38.2436 65.3892 38.1725 65.3488C38.1014 65.3084 38.0419 65.2502 38 65.18C37.958 65.1098 37.935 65.0298 37.9332 64.948C37.9314 64.8663 37.9508 64.7854 37.9896 64.7134C38.9524 62.8646 39.4904 60.8243 39.5644 58.7412C39.6383 56.6581 39.2464 54.5848 38.4172 52.6724C38.3928 52.6153 38.38 52.5539 38.3794 52.4918C38.3787 52.4297 38.3903 52.368 38.4135 52.3104C38.4367 52.2528 38.471 52.2003 38.5145 52.156C38.558 52.1116 38.6098 52.0762 38.6669 52.0519C38.7241 52.0275 38.7854 52.0147 38.8475 52.014C38.9097 52.0134 38.9713 52.025 39.0289 52.0482C39.0865 52.0714 39.139 52.1057 39.1834 52.1492C39.2277 52.1927 39.2631 52.2445 39.2875 52.3016C40.0922 54.1711 40.5098 56.1843 40.515 58.2197C40.5202 60.255 40.1129 62.2703 39.3177 64.1439C40.5948 63.6702 41.7867 62.9926 42.847 62.1376C47.9003 58.0842 50.1025 50.3501 47.8606 44.5278C47.8383 44.4698 47.8276 44.408 47.8292 44.3458C47.8308 44.2837 47.8446 44.2225 47.8699 44.1657C47.8951 44.1089 47.9313 44.0577 47.9764 44.0149C48.0215 43.9721 48.0745 43.9386 48.1325 43.9163C48.1905 43.894 48.2524 43.8833 48.3145 43.8849C48.3766 43.8865 48.4378 43.9003 48.4946 43.9256C48.5514 43.9509 48.6027 43.987 48.6455 44.0321C48.6883 44.0772 48.7218 44.1302 48.7441 44.1882C51.1231 50.3728 48.7923 58.5799 43.4373 62.8744C41.9907 64.0396 40.3209 64.8962 38.5307 65.3916C38.4901 65.4035 38.4481 65.4099 38.4058 65.4105Z" fill="#323C6B"/>
<path d="M18.9567 68.9328C18.8705 68.932 18.7861 68.9076 18.7128 68.8622C18.6394 68.8169 18.5799 68.7523 18.5405 68.6755C18.5197 68.6339 16.8955 64.9239 17.2786 62.4389C16.4511 62.7892 15.5635 62.9758 14.665 62.9885C12.1374 63.067 10.4253 66.9899 9.95985 68.1912C9.92632 68.2873 9.86404 68.3708 9.78148 68.4304C9.69891 68.49 9.60003 68.5227 9.49823 68.5242C9.40243 68.5286 9.30764 68.5031 9.22697 68.4512C9.14631 68.3994 9.08375 68.3237 9.04796 68.2347C9.02242 68.161 6.84674 60.7211 12.0267 58.1964C12.0769 58.1689 13.6244 57.3166 13.1893 56.0633C13.0646 55.8863 12.8772 55.7636 12.6653 55.7199C11.445 55.3945 9.10661 56.6072 8.69891 56.855C8.62256 56.9026 8.53421 56.9275 8.44423 56.9266C8.35426 56.9258 8.26638 56.8993 8.19093 56.8503C8.11567 56.8018 8.05572 56.7329 8.01804 56.6517C7.98037 56.5705 7.96651 56.4803 7.9781 56.3915C8.82717 53.246 10.5134 50.3898 12.8573 48.1268C13.717 47.3239 14.7285 46.701 15.8323 46.2945C15.8909 46.2715 15.9535 46.2604 16.0164 46.2619C16.0793 46.2633 16.1413 46.2774 16.1988 46.3031C16.2562 46.3289 16.3079 46.3658 16.3509 46.4118C16.3938 46.4578 16.4272 46.512 16.449 46.571C16.4708 46.6301 16.4805 46.6929 16.4777 46.7558C16.4749 46.8186 16.4596 46.8803 16.4327 46.9372C16.4057 46.9941 16.3677 47.045 16.3208 47.087C16.2739 47.129 16.2191 47.1612 16.1596 47.1818C15.1733 47.545 14.2696 48.1018 13.5015 48.8192C11.5671 50.6871 10.1012 52.9854 9.22296 55.5269C10.3423 54.919 11.62 54.6656 12.8866 54.8004C13.1315 54.8574 13.3616 54.9653 13.5619 55.1172C13.7622 55.2691 13.9283 55.4616 14.0492 55.682C14.6413 57.3696 13.2612 58.6088 12.4534 59.0392C9.28634 60.583 9.3535 64.4311 9.6562 66.5226C10.588 64.6089 12.2538 62.1182 14.6347 62.0445C15.7866 62.0296 16.9106 61.6885 17.8765 61.0607C17.969 61.0047 18.0779 60.982 18.1851 60.9966C18.2923 61.0111 18.3912 61.062 18.4655 61.1406C18.5397 61.2193 18.5847 61.321 18.5931 61.4289C18.6014 61.5367 18.5725 61.6441 18.5112 61.7333C17.8093 62.7587 18.3059 65.0507 18.795 66.6399C19.0534 65.7402 19.5106 64.91 20.1328 64.2106C20.7549 63.5112 21.5261 62.9603 22.3896 62.5988L22.5788 62.5137C23.6904 62.0175 24.677 61.2792 25.4666 60.3527C26.2561 59.4262 26.8285 58.3349 27.142 57.1587C27.1745 57.0374 27.2538 56.9339 27.3626 56.8711C27.4713 56.8083 27.6006 56.7913 27.7219 56.8238C27.8432 56.8563 27.9466 56.9356 28.0094 57.0444C28.0722 57.1531 28.0892 57.2824 28.0567 57.4037C27.707 58.716 27.0684 59.9335 26.1875 60.9672C25.3066 62.001 24.2059 62.8247 22.9657 63.3783L22.7765 63.4662C21.8064 63.8991 20.9781 64.5969 20.3867 65.4794C19.7954 66.3619 19.465 67.3933 19.4335 68.4551C19.4355 68.5625 19.4009 68.6674 19.3354 68.7525C19.2699 68.8376 19.1774 68.8978 19.0731 68.9234C19.0348 68.9311 18.9958 68.9342 18.9567 68.9328Z" fill="#323C6B"/>
</svg>
