<svg width="70" height="70" viewBox="0 0 70 70" fill="none" xmlns="http://www.w3.org/2000/svg">
<g clip-path="url(#clip0_289_516)">
<path d="M31.2926 21.19C23.9728 16.6259 14.5937 17.7036 8.48564 23.8111L2.08496 30.2123H7.03568C11.9581 30.2123 16.1371 34.0485 16.5504 38.9399L31.2926 21.19Z" fill="#FF9100"/>
<path d="M48.81 38.7075L31.0601 53.4496C35.9499 53.8646 39.7876 58.0361 39.7876 62.9644V67.9151L46.1888 61.5145C52.2963 55.4064 53.374 46.0273 48.81 38.7075V38.7075Z" fill="#FF641A"/>
<path d="M20.087 49.913C16.8965 46.723 11.6761 46.723 8.48564 49.913C7.61566 50.7835 6.94862 51.7982 6.54274 52.9587L0 69.9999L17.0418 63.4572C18.2018 63.0513 19.217 62.3843 20.087 61.5143C23.2769 58.3238 23.2769 53.1034 20.087 49.913Z" fill="#FF9100"/>
<path d="M20.087 61.5144C19.2165 62.3844 18.2018 63.0514 17.0412 63.4573L0 70.0001L20.087 49.9131C23.2769 53.1035 23.2769 58.324 20.087 61.5144V61.5144Z" fill="#FF641A"/>
<path d="M50.4235 40.6322L30.9336 54.9594L25.8873 55.714L15.0112 44.8379L15.0401 39.0664L29.3672 19.577C33.6595 13.7184 39.1992 9.04913 45.4637 5.68457H51.2641L64.4308 18.8518L64.3149 24.5363C60.9514 30.8008 56.2816 36.34 50.4235 40.6322V40.6322Z" fill="#E0F4FF"/>
<path d="M50.4235 40.632L30.9336 54.9591L25.8873 55.7138L20.0869 49.9128L57.7898 12.21L64.4313 18.8515L64.3154 24.536C60.9514 30.8005 56.2816 36.3398 50.4235 40.632V40.632Z" fill="#BBDCFF"/>
<path d="M64.3156 24.5362L45.4639 5.68451C52.3083 2.03049 60.0233 0 67.9408 0.0293732L70.0001 0L69.9707 2.05933C70.0001 9.97673 67.9701 17.6917 64.3156 24.5362Z" fill="#FDBF00"/>
<path d="M30.9338 54.9594L24.234 59.861L10.1392 45.7662L15.0407 39.0664L30.9338 54.9594Z" fill="#FDBF00"/>
<path d="M22.9869 47.0132L30.9337 54.9594L24.2339 59.861L17.1865 52.8136L22.9869 47.0132Z" fill="#FF9100"/>
<path d="M64.3152 24.5362L54.8896 15.1101L69.9997 0L69.9704 2.05933C69.9997 9.97673 67.9698 17.6917 64.3152 24.5362Z" fill="#FF9100"/>
<path d="M49.0896 20.9111C46.6826 18.5036 42.7963 18.5036 40.3887 20.9111C37.9817 23.3181 37.9817 27.2045 40.3887 29.612C42.7963 32.019 46.6821 32.019 49.0896 29.612C51.4971 27.2045 51.4966 23.3181 49.0896 20.9111Z" fill="#38D3F8"/>
<path d="M40.3882 29.6115L49.0891 20.9106C51.4961 23.3182 51.4961 27.2045 49.0891 29.6115C46.6821 32.019 42.7957 32.019 40.3882 29.6115Z" fill="#00C0F1"/>
</g>
<defs>
<clipPath id="clip0_289_516">
<rect width="70" height="70" fill="white"/>
</clipPath>
</defs>
</svg>
