<svg width="70" height="70" viewBox="0 0 70 70" fill="none" xmlns="http://www.w3.org/2000/svg">
<g clip-path="url(#clip0)">
<path d="M68.5989 1.36719C68.5989 1.36719 68.335 8.72674 65.2766 17.3797L52.5864 4.68945C61.2393 1.63105 68.5989 1.36719 68.5989 1.36719Z" fill="#FF5249"/>
<path d="M52.5863 4.68994L65.2765 17.3802C63.2886 23.0102 60.1154 29.1872 55.065 34.2375C50.411 38.8916 44.8121 42.617 38.9582 45.1996L24.7668 31.0082C26.495 27.0913 28.9067 22.9118 32.0936 18.9538C33.2092 17.5688 34.4192 16.2112 35.7289 14.9014C40.7793 9.85106 46.9563 6.67783 52.5863 4.68994Z" fill="white"/>
<path d="M53.1305 16.8355C55.2661 18.9711 55.2661 22.4342 53.1305 24.5697C50.995 26.7053 47.5332 26.7053 45.3963 24.5697C43.2608 22.4328 43.2608 18.9711 45.3963 16.8355C47.5319 14.7 50.995 14.7 53.1305 16.8355Z" fill="#7BD8E8"/>
<path d="M51.1973 38.1036C58.2438 48.6733 45.0532 55.5051 37.6636 55.5051C41.53 51.6387 40.4007 46.6417 40.4007 46.6417L38.9583 45.1993C42.8753 43.4712 47.0548 41.0595 51.0128 37.8726L51.1973 38.1036Z" fill="#FF5249"/>
<path d="M23.1782 41.0216L22.9567 40.8001C22.3032 40.1452 21.9819 39.1964 22.2116 38.2995C22.7817 36.0792 23.6239 33.6018 24.7669 31.0083L38.9583 45.1997C36.3647 46.3426 33.8874 47.1848 31.6671 47.7549C30.7702 47.9846 29.8214 47.6633 29.1665 47.0098L28.945 46.7883L23.1782 41.0216Z" fill="#FF5249"/>
<path d="M31.8625 18.769L32.0935 18.9535C28.9066 22.9115 26.4949 27.091 24.7668 31.008L23.3244 29.5656C23.3244 29.5656 18.3273 28.4363 14.4609 32.3027C14.4609 24.9131 21.2928 11.7225 31.8625 18.769Z" fill="#FF5249"/>
<path d="M23.1781 41.021L28.9449 46.7878C28.5306 48.427 27.5476 50.1524 26.0615 51.6386C22.8582 54.8419 14.4609 55.505 14.4609 55.505C14.4609 55.505 15.124 47.1077 18.3273 43.9044C19.8135 42.4183 21.5389 41.4353 23.1781 41.021Z" fill="#FFDD78"/>
<path d="M36.7312 35.2038C37.2644 34.6692 37.2644 33.8038 36.7312 33.2706C36.1966 32.736 35.3312 32.736 34.7966 33.2706C34.2634 33.8038 34.2634 34.6692 34.7966 35.2038C35.3312 35.737 36.1966 35.737 36.7312 35.2038Z" fill="#041A57"/>
<path d="M54.1315 25.5364C56.8027 22.8652 56.8032 18.5404 54.1315 15.8688C51.46 13.1975 47.1353 13.1973 44.4637 15.8688C41.7992 18.5333 41.7991 22.87 44.4641 25.5367C47.1296 28.2005 51.4663 28.2016 54.1315 25.5364ZM46.3973 17.8023C48.0001 16.1995 50.595 16.1992 52.198 17.8023C53.8007 19.4049 53.801 21.9999 52.198 23.6028C50.5994 25.2016 47.9971 25.2016 46.3976 23.6031C44.7987 22.0032 44.7985 19.4009 46.3973 17.8023Z" fill="#041A57"/>
<path d="M13.9716 33.5656C14.1407 33.6358 14.3184 33.6698 14.4945 33.6698C14.8504 33.6698 15.2 33.5308 15.4615 33.2694C18.2072 30.5236 21.5939 30.6954 22.7002 30.8408L23.179 31.3196C22.2367 33.5618 21.4777 35.7914 20.921 37.9599C20.72 38.7447 20.7878 39.5751 21.0865 40.3347C19.7702 40.9413 18.5002 41.832 17.3945 42.9378C13.8752 46.4572 13.1606 55.0341 13.1318 55.3975C13.1004 55.7963 13.245 56.189 13.5279 56.4719C13.7854 56.7292 14.1336 56.8723 14.4945 56.8723C14.5303 56.8723 14.5663 56.8709 14.6023 56.8681C14.9657 56.8395 23.5428 56.1249 27.0621 52.6056C28.1675 51.5002 29.058 50.2304 29.6647 48.9143C30.4688 49.2306 31.2965 49.2695 32.0408 49.0788C34.2084 48.5222 36.4377 47.7634 38.6802 46.821L39.1589 47.2998C39.3043 48.4063 39.476 51.7929 36.7304 54.5384C36.3395 54.9294 36.2225 55.5174 36.4341 56.0282C36.6456 56.5391 37.1441 56.8722 37.6972 56.8722C43.1085 56.8722 50.6738 53.6496 53.4601 48.4432C54.6702 46.1823 55.4941 42.6055 52.8666 38.1417C53.9805 37.2003 55.0533 36.2159 56.0653 35.2039C60.5797 30.6895 64.1237 24.8457 66.5992 17.8353C69.6917 9.08564 69.9875 1.72526 69.9985 1.41628C70.0122 1.03689 69.8674 0.668977 69.599 0.400462C69.3305 0.132083 68.9641 -0.013385 68.5832 0.000970428C68.2741 0.0120446 60.9139 0.307903 52.1646 3.40034C45.1536 5.87576 39.3099 9.41992 34.7956 13.9344C33.784 14.9459 32.7996 16.0186 31.8578 17.133C27.3942 14.5056 23.8174 15.3294 21.5562 16.5395C16.3498 19.3259 13.1272 26.8913 13.1272 32.3026C13.1276 32.8555 13.4608 33.3541 13.9716 33.5656ZM25.1286 50.672C23.2487 52.5519 18.8389 53.5433 16.0516 53.9482C16.4566 51.1608 17.4482 46.751 19.3279 44.8713C20.3807 43.8186 21.6013 43.0204 22.8282 42.5709L27.429 47.1717C26.9795 48.3986 26.1815 49.6193 25.1286 50.672ZM31.3616 46.43C30.966 46.5313 30.5077 46.3826 30.167 46.0424C23.5305 39.4061 32.0496 47.9252 23.9583 39.8338C23.6173 39.4921 23.4686 39.034 23.5696 38.639C24.0075 36.9336 24.5802 35.1838 25.2767 33.4173L36.5826 44.7232C34.8158 45.4198 33.0664 45.9924 31.3616 46.43ZM51.0496 47.153C49.2583 50.4997 44.7483 52.9667 40.6382 53.8158C41.9487 51.3498 42.2376 48.2106 41.7588 46.3071C41.6476 45.865 41.3592 45.6427 41.343 45.6165C44.6561 44.0119 47.7937 42.0867 50.7063 39.8723C52.1292 42.4719 52.2463 44.9168 51.0496 47.153ZM64.7101 14.8459L55.1541 5.28979C60.3604 3.67268 64.8898 3.06716 67.1506 2.8495C66.9328 5.11069 66.3271 9.64003 64.7101 14.8459ZM36.7296 15.8678C40.7799 11.8174 46.0072 8.59386 52.2705 6.27348L63.7264 17.7294C61.4063 23.9926 58.1828 29.2199 54.1321 33.2705C52.9001 34.5023 51.5735 35.6924 50.1891 36.8076C46.8611 39.4873 43.1982 41.7571 39.2902 43.564L26.4359 30.71C28.2428 26.8018 30.5126 23.1388 33.192 19.8112C34.3082 18.4258 35.4982 17.0991 36.7296 15.8678ZM22.8469 18.9503C25.0835 17.7535 27.5282 17.8708 30.1275 19.2936C27.913 22.206 25.9879 25.3437 24.3832 28.657C24.3629 28.6444 24.1168 28.3351 23.6596 28.232C23.4716 28.1894 19.8542 27.4114 16.1839 29.3619C17.0332 25.2518 19.5001 20.7416 22.8469 18.9503Z" fill="#041A57"/>
<path d="M28.9972 62.2728L32.8636 58.405C33.3973 57.871 33.3972 57.0053 32.8633 56.4716C32.3292 55.9377 31.4635 55.938 30.9297 56.4718L27.0633 60.3396C26.5296 60.8736 26.5297 61.7393 27.0636 62.2731C27.5977 62.8068 28.4634 62.8068 28.9972 62.2728Z" fill="#041A57"/>
<path d="M9.66059 42.9367L13.5284 39.0703C14.0624 38.5366 14.0625 37.6709 13.5288 37.1369C12.995 36.6029 12.1295 36.6029 11.5953 37.1366L7.72752 41.003C7.1935 41.5367 7.19336 42.4024 7.72711 42.9365C8.26073 43.4702 9.12629 43.4708 9.66059 42.9367Z" fill="#041A57"/>
<path d="M21.2624 58.4062L12.0011 67.6661C11.4671 68.2 11.4671 69.0657 12.001 69.5996C12.5346 70.1335 13.4004 70.1337 13.9345 69.5997L23.1958 60.3398C23.7298 59.8059 23.7298 58.9402 23.1959 58.4063C22.6623 57.8724 21.7965 57.8724 21.2624 58.4062Z" fill="#041A57"/>
<path d="M10.3249 58.4062L1.06362 67.6661C0.529597 68.2 0.529597 69.0657 1.06348 69.5996C1.5971 70.1335 2.46293 70.1337 2.99696 69.5997L12.2583 60.3398C12.7923 59.8059 12.7923 58.9402 12.2584 58.4063C11.7247 57.8724 10.8588 57.8724 10.3249 58.4062Z" fill="#041A57"/>
<path d="M2.33425 57.999L11.5942 48.7377C12.1281 48.2037 12.1281 47.3381 11.5941 46.8041C11.0603 46.2704 10.1945 46.2704 9.66058 46.8042L0.400641 56.0655C-0.133244 56.5996 -0.133244 57.4651 0.400778 57.9991C0.934664 58.533 1.80037 58.533 2.33425 57.999Z" fill="#041A57"/>
<path d="M40.5977 31.3361L42.5309 29.4029C43.0648 28.869 43.0648 28.0033 42.5309 27.4693C41.9969 26.9354 41.1314 26.9354 40.5973 27.4693L38.6641 29.4025C38.1302 29.9363 38.1302 30.802 38.6641 31.3361C39.1981 31.87 40.0637 31.87 40.5977 31.3361Z" fill="#041A57"/>
</g>
<defs>
<clipPath id="clip0">
<rect width="70" height="70" fill="white"/>
</clipPath>
</defs>
</svg>
