<svg width="30" height="30" viewBox="0 0 30 30" fill="none" xmlns="http://www.w3.org/2000/svg">
<rect x="0.5" y="0.5" width="29" height="29" rx="4.5" stroke="#C4C4C4"/>
<path d="M20.1875 13.9688H15.9688V9.75C15.9688 9.25195 15.5293 8.8125 15.0312 8.8125H14.0938C13.5664 8.8125 13.1562 9.25195 13.1562 9.75V13.9688H8.9375C8.41016 13.9688 8 14.4082 8 14.9062V15.8438C8 16.3711 8.41016 16.7812 8.9375 16.7812H13.1562V21C13.1562 21.5273 13.5664 21.9375 14.0938 21.9375H15.0312C15.5293 21.9375 15.9688 21.5273 15.9688 21V16.7812H20.1875C20.6855 16.7812 21.125 16.3711 21.125 15.8438V14.9062C21.125 14.4082 20.6855 13.9688 20.1875 13.9688Z" fill="#C4C4C4"/>
</svg>
