<svg width="416" height="533" viewBox="0 0 416 533" fill="none" xmlns="http://www.w3.org/2000/svg">
<path d="M401.065 533L416 533L416 0L401.065 -6.52818e-07C401.065 3.65691 396.449 6.48271 390.475 6.48271C384.501 6.48271 379.885 3.65691 379.885 -1.57863e-06L367.123 -2.13649e-06C367.123 3.65691 362.507 6.48271 356.533 6.48271C350.559 6.48271 345.943 3.65691 345.943 -3.06231e-06L333.18 -3.62017e-06C333.18 3.65691 328.564 6.48271 322.59 6.48271C316.616 6.48271 312 3.65691 312 -4.54598e-06L299.238 -5.10385e-06C299.238 3.65691 294.621 6.48271 288.648 6.48271C282.674 6.48271 278.057 3.65691 278.057 -6.02966e-06L263.123 -6.68248e-06C263.123 18.617 238.413 33.7433 208 33.7433C177.587 33.7433 152.877 18.617 152.877 -1.15015e-05L137.943 -1.21543e-05C137.943 3.6569 133.326 6.4827 127.352 6.4827C121.379 6.4827 116.762 3.6569 116.762 -1.30801e-05L104 -1.3638e-05C104 3.6569 99.3838 6.4827 93.4099 6.4827C87.436 6.4827 82.8198 3.6569 82.8198 -1.45638e-05L70.0575 -1.51216e-05C70.0575 3.6569 65.4413 6.4827 59.4674 6.4827C53.4935 6.4827 48.8773 3.6569 48.8773 -1.60474e-05L36.1149 -1.66053e-05C36.1149 3.6569 31.4987 6.4827 25.5248 6.4827C19.5509 6.4827 14.9347 3.6569 14.9347 -1.75311e-05L1.62806e-05 -1.81839e-05L-7.01759e-06 533L14.9347 533C14.9347 529.343 19.5509 526.517 25.5248 526.517C31.4987 526.517 36.1149 529.343 36.1149 533L48.8773 533C48.8773 529.343 53.4935 526.517 59.4674 526.517C65.4412 526.517 70.0574 529.343 70.0574 533L82.8198 533C82.8198 529.343 87.436 526.517 93.4099 526.517C99.3838 526.517 104 529.343 104 533L116.762 533C116.762 529.343 121.379 526.517 127.352 526.517C133.326 526.517 137.943 529.343 137.943 533L152.877 533C152.877 514.383 177.587 499.257 208 499.257C238.413 499.257 263.123 514.383 263.123 533L278.057 533C278.057 529.343 282.674 526.517 288.647 526.517C294.621 526.517 299.238 529.343 299.238 533L312 533C312 529.343 316.616 526.517 322.59 526.517C328.564 526.517 333.18 529.343 333.18 533L345.943 533C345.943 529.343 350.559 526.517 356.533 526.517C362.507 526.517 367.123 529.343 367.123 533L379.885 533C379.885 529.343 384.501 526.517 390.475 526.517C396.449 526.517 401.065 529.509 401.065 533Z" fill="#F9F9F9"/>
</svg>
