<svg width="200" height="37" viewBox="0 0 200 37" fill="none" xmlns="http://www.w3.org/2000/svg">
<path d="M0 36.5076H23.0547V30.2296H7.21291V21.6302H21.8053V15.3522H7.21291V6.77044H22.988V0.492396H0V36.5076Z" fill="white"/>
<path d="M34.886 0.492396H26.8735L38.6507 36.5076H47.9459L59.7064 0.492396H51.7106L43.4482 27.8555H43.1317L34.886 0.492396Z" fill="white"/>
<path d="M65.1577 36.5076L67.6897 28.2952H80L82.532 36.5076H90.2613L78.5008 0.492396H69.2056L57.4284 36.5076H65.1577ZM69.5221 22.3512L73.7199 8.72243H73.9865L78.1843 22.3512H69.5221Z" fill="white"/>
<path d="M122.865 13.1012C121.916 4.78327 115.952 0 108.056 0C99.0442 0 92.1645 6.71768 92.1645 18.5C92.1645 30.2471 98.9276 37 108.056 37C116.802 37 122.082 30.8626 122.865 24.2329L115.569 24.1977C114.886 28.049 112.021 30.2647 108.173 30.2647C102.992 30.2647 99.4774 26.2025 99.4774 18.5C99.4774 11.0086 102.942 6.73527 108.223 6.73527C112.171 6.73527 115.019 9.14449 115.569 13.1012H122.865Z" fill="white"/>
<path d="M200 0.492396H192.82V23.1426H192.521L177.795 0.492396H171.465V36.5076H178.678V13.8398H178.928L193.77 36.5076H200V0.492396Z" fill="white"/>
<g clip-path="url(#clip0_1_13)">
<path d="M151.286 23.56C150.303 25.92 148.6 27.88 146.519 29.16C144.816 30.24 142.811 30.84 140.654 30.84C138.951 30.84 137.324 30.44 135.886 29.76C131.914 27.84 129.151 23.72 129 18.88C129 18.76 129 18.64 129 18.52C129 18.4 129 18.28 129 18.16C129.114 13.32 131.914 9.16 135.886 7.28C135.243 8.8 134.865 10.52 134.865 12.32C134.865 14.56 135.432 16.68 136.454 18.52C137.665 20.72 139.519 22.52 141.751 23.56C143.189 24.24 144.816 24.64 146.519 24.64C148.222 24.64 149.811 24.24 151.286 23.56Z" fill="#2A07F9"/>
<path d="M164 18.52C164 18.64 164 18.76 164 18.88C163.887 23.72 161.087 27.88 157.114 29.76C157.757 28.24 158.135 26.52 158.135 24.72C158.135 22.48 157.568 20.36 156.546 18.52C155.335 16.32 153.481 14.52 151.249 13.48C149.811 12.76 148.222 12.4 146.519 12.4C144.816 12.4 143.189 12.8 141.751 13.48C142.735 11.12 144.438 9.15998 146.519 7.87998C148.222 6.79998 150.227 6.19998 152.384 6.19998C154.087 6.19998 155.714 6.59998 157.151 7.27998C161.124 9.15998 163.887 13.32 164.038 18.16C164 18.28 164 18.4 164 18.52Z" fill="#2A07F9"/>
<path d="M157.151 7.28C155.714 6.6 154.087 6.2 152.384 6.2C150.265 6.2 148.259 6.8 146.519 7.88C144.438 9.16 142.735 11.12 141.751 13.48C141.108 15 140.73 16.72 140.73 18.52C140.73 20.32 141.108 22.04 141.751 23.56C139.519 22.52 137.665 20.72 136.454 18.52C135.432 16.72 134.865 14.6 134.865 12.32C134.865 10.52 135.243 8.8 135.887 7.28C137.665 3.08 141.562 0.16 146.178 0C146.292 0 146.405 0 146.519 0C146.632 0 146.746 0 146.859 0C151.438 0.16 155.373 3.08 157.151 7.28Z" fill="white"/>
<path d="M158.135 24.68C158.135 26.48 157.757 28.2 157.113 29.72C155.335 33.92 151.4 36.84 146.822 37C146.708 37 146.595 37 146.481 37C146.368 37 146.254 37 146.141 37C141.562 36.88 137.627 33.92 135.849 29.72C137.324 30.44 138.951 30.8 140.654 30.8C142.773 30.8 144.778 30.2 146.519 29.12C148.6 27.84 150.303 25.88 151.286 23.52C151.93 22 152.308 20.28 152.308 18.48C152.308 16.68 151.93 14.96 151.286 13.44C153.519 14.48 155.373 16.28 156.584 18.48C157.568 20.32 158.135 22.44 158.135 24.68Z" fill="white"/>
</g>
<defs>
<clipPath id="clip0_1_13">
<rect width="35" height="37" fill="white" transform="translate(129)"/>
</clipPath>
</defs>
</svg>
