<svg width="200" height="37" viewBox="0 0 200 37" fill="none" xmlns="http://www.w3.org/2000/svg">
<path d="M0 34.5342H23.0547V28.5955H7.21291V20.461H21.8053V14.5223H7.21291V6.40447H22.988V0.46578H0V34.5342Z" fill="white"/>
<path d="M34.886 0.46578H26.8735L38.6507 34.5342H47.9459L59.7064 0.46578H51.7106L43.4482 26.3498H43.1317L34.886 0.46578Z" fill="white"/>
<path d="M65.1577 34.5342L67.6897 26.7657H80L82.532 34.5342H90.2613L78.5008 0.46578H69.2056L57.4284 34.5342H65.1577ZM69.5221 21.1431L73.7199 8.25095H73.9865L78.1843 21.1431H69.5221Z" fill="white"/>
<path d="M122.865 12.3931C121.916 4.52472 115.952 0 108.056 0C99.0442 0 92.1645 6.35456 92.1645 17.5C92.1645 28.6122 98.9276 35 108.056 35C116.802 35 122.082 29.1944 122.865 22.923L115.569 22.8897C114.886 26.5328 112.021 28.6288 108.173 28.6288C102.992 28.6288 99.4774 24.7861 99.4774 17.5C99.4774 10.4135 102.942 6.3712 108.223 6.3712C112.171 6.3712 115.019 8.65019 115.569 12.3931H122.865Z" fill="white"/>
<path d="M200 0.46578H192.82V21.8916H192.521L177.795 0.46578H171.465V34.5342H178.678V13.0917H178.928L193.77 34.5342H200V0.46578Z" fill="white"/>
<g clip-path="url(#clip0_1_94)">
<path d="M152.389 23.2348C151.361 25.5623 149.582 27.4952 147.408 28.7576C145.629 29.8227 143.534 30.4144 141.28 30.4144C139.501 30.4144 137.802 30.0199 136.299 29.3493C132.148 27.4558 129.263 23.3926 129.104 18.6194C129.104 18.5011 129.104 18.3827 129.104 18.2644C129.104 18.1461 129.104 18.0277 129.104 17.9094C129.223 13.1362 132.148 9.03358 136.299 7.17952C135.627 8.67855 135.232 10.3748 135.232 12.15C135.232 14.3591 135.825 16.4498 136.892 18.2644C138.157 20.434 140.094 22.2092 142.427 23.2348C143.929 23.9055 145.629 24.2999 147.408 24.2999C149.187 24.2999 150.847 23.9055 152.389 23.2348Z" fill="#EE0034"/>
<path d="M165.672 18.2644C165.672 18.3827 165.672 18.5011 165.672 18.6194C165.553 23.3926 162.628 27.4952 158.477 29.3493C159.149 27.8502 159.544 26.154 159.544 24.3788C159.544 22.1697 158.951 20.079 157.884 18.2644C156.619 16.0948 154.682 14.3196 152.349 13.2939C150.847 12.5839 149.187 12.2289 147.408 12.2289C145.629 12.2289 143.929 12.6233 142.427 13.2939C143.455 10.9665 145.234 9.03357 147.408 7.77123C149.187 6.70614 151.282 6.11442 153.535 6.11442C155.314 6.11442 157.014 6.5089 158.516 7.17951C162.667 9.03357 165.553 13.1362 165.711 17.9094C165.672 18.0277 165.672 18.146 165.672 18.2644Z" fill="#EE0034"/>
<path d="M158.516 7.17953C157.014 6.50891 155.314 6.11443 153.535 6.11443C151.322 6.11443 149.226 6.70615 147.408 7.77125C145.234 9.03358 143.455 10.9665 142.427 13.294C141.755 14.793 141.359 16.4892 141.359 18.2644C141.359 20.0396 141.755 21.7358 142.427 23.2348C140.094 22.2092 138.157 20.434 136.892 18.2644C135.825 16.4892 135.232 14.3985 135.232 12.15C135.232 10.3748 135.627 8.67855 136.299 7.17953C138.157 3.03749 142.229 0.157792 147.052 0C147.171 0 147.289 0 147.408 0C147.526 0 147.645 0 147.764 0C152.547 0.157792 156.658 3.03749 158.516 7.17953Z" fill="white"/>
<path d="M159.544 24.3394C159.544 26.1145 159.149 27.8108 158.477 29.3098C156.619 33.4519 152.507 36.3316 147.724 36.4894C147.605 36.4894 147.487 36.4894 147.368 36.4894C147.25 36.4894 147.131 36.4894 147.012 36.4894C142.229 36.371 138.118 33.4519 136.26 29.3098C137.802 30.0199 139.501 30.3749 141.28 30.3749C143.494 30.3749 145.589 29.7832 147.408 28.7181C149.582 27.4558 151.361 25.5228 152.389 23.1954C153.061 21.6964 153.456 20.0001 153.456 18.225C153.456 16.4498 153.061 14.7535 152.389 13.2545C154.721 14.2802 156.658 16.0553 157.923 18.225C158.951 20.0396 159.544 22.1303 159.544 24.3394Z" fill="white"/>
</g>
<defs>
<clipPath id="clip0_1_94">
<rect width="36.5672" height="36.4894" fill="white" transform="translate(129.104)"/>
</clipPath>
</defs>
</svg>
